<?xml version="1.0" encoding="utf-8"?>
<!-- Generator: Adobe Illustrator 20.1.0, SVG Export Plug-In . SVG Version: 6.00 Build 0)  -->
<svg version="1.1" id="Layer_1" xmlns="http://www.w3.org/2000/svg" xmlns:xlink="http://www.w3.org/1999/xlink" x="0px" y="0px"
	 viewBox="0 0 370 370" style="enable-background:new 0 0 370 370;" xml:space="preserve">
<style type="text/css">
	.st0{fill:#FFFFFF;}
</style>
<circle class="st0" cx="185.8" cy="187.1" r="176.8"/>
<title>black basketball</title>
<g>
	<title>Layer 1</title>
	<g id="layer1">
		<g id="g2614" transform="matrix(-1 0 0 1 369.173 0)">
			<path id="path2458" marker-end="none" marker-start="none" marker-mid="none" d="M128.2,122.2l-23.5,28.9
				c57.2,41.9,32.9,187.6,96.3,214c44.9-4.4,84.9-25.5,113.8-56.9C256.9,238.7,197.1,172.6,128.2,122.2z"/>
			<path id="path2460" marker-end="none" marker-start="none" marker-mid="none" d="M161.9,89.7L136.6,115
				c83.8,71,136.8,130.5,182.3,187.2l0.8,0.4c26.3-31.1,42.1-71.2,42.1-115.1c0-3.5-0.1-7.1-0.3-10.6
				C329.8,113,210.6,133.9,161.9,89.7L161.9,89.7z"/>
			<path id="path2462" marker-end="none" marker-start="none" marker-mid="none" d="M267.4,40.6c-39.8,0.4-90.4,26-95.3,40.7
				c1.6,36.8,170.6,26,188.4,86.7l0.2,0c-5.6-51.2-32.8-95.9-72.4-124.8C281.9,41.4,274.8,40.6,267.4,40.6z"/>
			<path id="path2464" marker-end="none" marker-start="none" marker-mid="none" d="M183.4,9.1c-9,0-17.8,0.7-26.4,1.9
				c-26.5,28.7-12.4,54.5,1.9,62.4c12.2,8.7,43.5-45.6,122.2-35.2C253,19.8,219.4,9.1,183.4,9.1z"/>
			<path id="path2466" marker-end="none" marker-start="none" marker-mid="none" d="M102,160.6c-1.6,0-3.3,0.4-5.1,1
				C73.6,179.8,31.1,267.6,56,311.4c0,0,0,0,0,0c32.4,33,77.5,53.5,127.4,53.5c1.4,0,2.7,0,4.1,0C133.7,326.1,145.4,171.2,102,160.6
				z"/>
			<path id="path2468" marker-end="none" marker-start="none" marker-mid="none" d="M59.1,139c-19.5,0.6-42.3,10.9-53.1,33.1
				l-0.6,1.3c-0.4,4.6-0.6,9.3-0.6,14c0,44.1,16.1,84.6,42.7,115.7C22.9,226,97.8,158.1,89.7,150.5C84.3,142.7,72.5,138.6,59.1,139z
				"/>
			<path id="path2470" marker-end="none" marker-start="none" marker-mid="none" d="M53.4,65.3C28.2,92,11.1,126.6,6.3,164.9
				c19-31.7,47.3-43.2,93-19.2l23.5-29.5C107.4,102.4,75.1,78.5,53.4,65.3z"/>
			<path id="path2472" marker-end="none" marker-start="none" marker-mid="none" d="M149.3,12.3C114.3,19.1,83,36.1,58.5,60l0.4,0.8
				c25.7,11.7,47.8,30.9,70.4,48.8l27.1-25.3C138.8,66.5,125.2,47.1,149.3,12.3z"/>
			<path id="path3332" marker-end="none" marker-start="none" marker-mid="none" d="M128.2,122.2l-23.5,28.9
				c57.2,41.9,32.9,187.6,96.3,214c44.9-4.4,84.9-25.5,113.8-56.9C256.9,238.7,197.1,172.6,128.2,122.2z"/>
		</g>
	</g>
</g>
</svg>
