<?xml version="1.0" encoding="utf-8"?>
<!-- Generator: Adobe Illustrator 20.1.0, SVG Export Plug-In . SVG Version: 6.00 Build 0)  -->
<svg version="1.1" xmlns="http://www.w3.org/2000/svg" xmlns:xlink="http://www.w3.org/1999/xlink" x="0px" y="0px"
	 viewBox="0 0 370 370" style="enable-background:new 0 0 370 370;" xml:space="preserve">
<style type="text/css">
	.st0{display:none;}
	.st1{display:inline;}
	.st2{fill:#FFFFFF;}
	.st3{display:inline;fill:#FFFFFF;}
</style>
<g id="square" class="st0">
	<title>black basketball</title>
	<title>Layer 1</title>
	<g class="st1">
		<path class="st2" d="M361,8.9c-63.1,0-137.1,0-200.3,0c0,103.4,0,181.1,0,307c-45.8,0-55.8-1.5-101.5-1.5c0-45.2,0-85,0-130.5
			c-8.7,0-39.7,0.9-48.5,0.9c0,58.8-1.6,117.3-1.6,176.1c62.7,0,139,0,202.4,0c0-104-1.5-208-1.5-312.5c45.8,0,54.8,0,100.5,0
			c0,45.1,0,90,0,135.3c8.9,0,41.8,1.1,50.6,1.1C361,126.8,361,67.6,361,8.9z"/>
	</g>
</g>
<g id="basketball" class="st0">
	<path class="st3" d="M336.5,220c-3.4-19.7-9.7-38.6-19.6-56.2c10.4-2.3,20.8-4,30.4-0.1c4.2,1.7,8.9,5.2,13.1,8.8c0,0,0,0,0,0
		c0.4,0.1,0.8,0.3,1.1,0.4c-1.5-19.8-6.3-38.6-13.9-56c-10-2-20.5-1.7-30.7-0.7c-10.5,1-20.8,3.3-30.5,7.2c-1.5-1.6-3-3.1-4.5-4.6
		c-0.3-0.3-0.7-0.7-1-1c6.2-5.3,12.4-10.8,18.6-16c10-5.6,19.9-11.5,29.8-17.4C318,68.6,304,54.7,288.1,43.4
		c-15.6,12.4-30.8,25.1-43.9,40.1l-8.1-7.6c2.7-3.7,5.2-7.5,7.4-11.5c6.3-11.7,11.4-26.3,10.3-40.1C238,17.7,221,13.4,203.3,11.7
		c0.3,9.5,0.4,19.1-1.6,28.3c-0.6,2.7-1.3,5.3-2.2,8c-0.1,0.4-0.3,0.7-0.4,1.1c-3.8-3.6-7.7-7-12.1-10.2
		c-6.3-4.5-13.3-7.7-20.6-10.5c-12.8-4.9-26.2-6.6-39.8-7c0.7-0.3,1.4-0.5,2.1-0.8h-0.4c-26.5,9.2-50.1,24.7-69.1,44.6
		c0.8,0.2,1.7,0.4,2.4,0.7c1-0.9,1.9-1.8,2.9-2.7c0.5,0,1.1,0,1.6,0.1c2.2,0.8,4.6,1.3,7.1,1.2c2.8,0,5.6-0.1,8.4-0.1
		c9.1,0.9,18.2,2,27.2,3.2c7.9,1.1,17.3,1.9,24.3,3c3,0.5,6,1.1,9,1.9c1.5,0.4,2.9,0.9,4.4,1.4c0.8,0.3,1.6,0.6,2.4,0.9
		c0.1,0.1,0.3,0.1,0.3,0.1c0.1,0,0.1,0,0.2,0.1c5.4,2.4,10,5.3,14.3,8.4c-0.5,0.2-0.9,0.4-1.4,0.6c-0.1,0-0.1,0.1-0.2,0.1
		c-1.3,0.5-2.5,1-3.8,1.5C125.2,97.8,89,98.9,55,108.2c-10.9,3-21.7,6.9-31.6,12.3c-8.3,20.4-12.9,42.7-12.9,66.1c0,0.1,0,0.2,0,0.3
		c1-0.3,2.1-0.5,3.1-0.5c1-1,2-1.9,3.1-2.8c0.5-0.4,1-0.9,1.5-1.3c0,0,0.1,0,0.1-0.1c2.7-1.9,5.4-3.7,8.2-5.3
		c2.6-1.5,5.2-2.9,7.9-4.2c1.4-0.7,2.7-1.3,4.1-1.9c0.7-0.3,1.4-0.6,2.1-0.9c0.4-0.2,1.8-0.8,1.9-0.8c29.2-12.2,59.8-21.2,90.2-29.9
		c11.8-3.4,23.3-7.3,34.4-12.6c9.5-4.5,18.7-9.8,28.4-14c0.9,0.6,1.7,1.2,2.5,1.8c1.5,1.7,3.1,3.4,4.6,5.1c-3.1,2.6-6.3,5.2-9.2,8
		c-23.3,11.6-41.4,31.9-57.8,51.9c-22.4,27.2-45.4,53.8-65.5,82.7c-7.6,11-14.8,22.4-21.5,34c12.3,15.5,27.2,28.9,44,39.5
		c6.3-6.4,11.5-14.2,16.4-21.6c10.6-15.9,20.3-32.3,30.5-48.4c9.5-14.9,19.8-29.2,30.1-43.6c9.1-12.7,18.4-25.4,28.7-37.2
		c1.4-1.6,2.8-3.2,4.2-4.7c10-10.9,20.9-20.9,33.3-28.9c0,0,0,0,0,0c2.6,2.1,5.3,4.1,8.1,6.1c-2.4,3.2-4.7,6.5-6.9,9.9
		c-9.1,14.5-15.6,30.6-20.3,47.2c-1.2,4.4-2.3,8.8-3.3,13.2c-0.1,0.3-0.1,0.5-0.2,0.8c-0.3,1.1-0.5,2.3-0.7,3.4
		c-0.1,0.6-0.2,1.2-0.4,1.8c-0.2,1-0.4,2-0.6,2.9c-0.1,0.8-0.3,1.6-0.4,2.4c-0.2,0.8-0.3,1.7-0.5,2.5c-0.2,1-0.3,2-0.5,3
		c-0.1,0.6-0.2,1.3-0.3,1.9c-0.3,1.7-0.5,3.4-0.7,5c-1.8,12.8-2.9,25.7-4.4,38.6c-0.3,3.1-0.7,6.2-1.1,9.3c0,0.1-0.1,0.5-0.1,0.9
		c-0.1,0.6-0.3,2-0.3,1.9c-0.3,1.8-0.5,3.7-0.8,5.5c-1,6.3-2.2,12.7-3.7,18.9c-0.8,3.5-1.8,6.9-2.9,10.3c-0.5,1.7-1.1,3.3-1.7,5
		c-0.3,0.8-0.6,1.6-0.9,2.4c-0.1,0.1-0.3,0.8-0.5,1.2c-0.2,0.5-0.6,1.4-0.6,1.4c-0.3,0.8-0.7,1.5-1.1,2.3c-0.7,1.5-1.5,2.9-2.3,4.3
		c-0.4,0.6-0.7,1.2-1.1,1.8c-0.5,0.8-0.9,1.5-1.4,2.3c0,0,0,0,0,0.1c-2.1,1.9-4.3,3.5-6.7,5c2.2,0.1,4.5,0.1,6.7,0.1
		c21.1,0,41.4-3.7,60.1-10.6c5.3-13.6,8.7-28.1,10.9-42.3c2.3-14.9,3.6-30,4-45.1c0.5-14.9-0.2-29.8,1.2-44.7
		c1.1-11.2,4-22.1,9.9-31.6c6.5,11.9,9.9,25.5,12.4,39.5c2.9,17,4.5,34.1,5.4,51.3c0.8,16.3,0.9,32.6,0.8,49
		c18.7-13.9,34.4-31.3,46.4-51.4C338.4,257.7,336.8,238.7,336.5,220z"/>
</g>
<g id="sin" class="st0">
	<title>black basketball</title>
	<title>Layer 1</title>
	<g class="st1">
		<path class="st2" d="M361,219.3c0,38.8,0,77.6,0,116.4c0,10.6-5,18.4-14.6,22.8c-9.6,4.4-18.8,3-26.9-3.7
			c-5.5-4.6-8.5-10.7-8.7-18c-0.1-5.4,0-10.9,0-16.3c0-69.8,0-139.6,0-209.3c0-25.2-15.4-45-39.1-50.7
			c-30.1-7.2-60.6,15.3-61.2,46.2c-0.7,35-0.1,69.9-0.3,104.9c-0.1,19.6,0.6,39.3-0.9,58.9c-3.3,44.4-39.2,82.3-83.1,89.1
			C79,367,34.8,342.3,16.4,298.2C11.3,286,9,273.2,9,260c0-74.9,0-149.8,0-224.7C9,20.1,19.6,9,34,8.9c14.5,0,25.1,11,25.1,26.2
			c0,74.4,0,148.8,0,223.2c0,25.5,15.4,45.3,39.4,51c29.8,7.1,60.4-15.5,60.9-46.1c0.7-39.1,0.2-78.2,0.3-117.4
			c0-15.5-0.3-31,0.8-46.4c3.2-45,40.7-83.9,85.4-89.6C300.8,3,348.3,36.9,359.2,91c1.3,6.2,1.6,12.7,1.7,19
			C361,146.5,361,182.9,361,219.3z"/>
	</g>
</g>
<g id="fire">
	<g>
		<path class="st2" d="M279.8,60.5c-0.3-0.3-0.6-0.5-0.9-0.7c0,0.2,0.5,1,1.9,2c-0.1-0.3-0.3-0.5-0.4-0.7
			C280.2,60.9,280,60.7,279.8,60.5z"/>
		<path class="st2" d="M275.3,57.8c0.5,0.4,1.4,0.9,2.6,1.2c0,0,0,0,0,0C277,58.7,276.2,58.3,275.3,57.8z"/>
		<path class="st2" d="M323.7,309c-53-2.1-106.1-1.4-158.9,2.4c-12.3,0.9-24.6,2.1-36.9,3c-5.2,0.4-10.4,0.6-15.7,0.7
			c-2.4,0-4.9,0-7.3-0.1c-1.5,0-3-0.1-4.5-0.2c-0.1,0-0.2,0-0.4,0c-1.7-0.3-4.6-0.7-5.4-0.8c-1.1-0.2-2.2-0.5-3.3-0.8
			c-1.1-0.8-2.4-1.5-3.7-2.2c-1.5-1.6-3.2-3-5.1-4.1c-2-2.1-3.5-4.5-4.2-7.2c-0.4-1.5-0.5-31.5-0.3-32.9
			c-1.1-6.2,3.4-13.1,13.4-13.1c1.2,0,2.3,0.1,3.4,0.3c2.4,0,4.9,0.5,7.2,1.3c-1.6-0.6,1.2,0.3,1.5,0.4c1,0.2,2,0.4,3,0.6
			c2.3,0.4,2.5,0.4,5.2,0.5c4.3,0.2,9.8-0.1,13.3-0.4c1.3-0.1,2.9-0.4,4.7-0.7c2-0.2,4-0.5,5.9-1c0.1,0,0.2,0,0.4-0.1
			c0.2,0,0.3,0,0.4-0.1c0.4-0.2,0.8-0.3,1.2-0.5c1.9-0.6,3.7-1.4,5.3-2.4c3-1.4,6-2.8,9.1-4.1c2.8-0.7,5.5-1.7,8-2.9
			c0.1-0.1,0.2-0.1,0.3-0.2c9.1-2.9,18.4-3.8,27.1,0.3c0.1,0,0.1,0,0.2,0c0,0,0,0,0,0c-0.1,0-0.1,0-0.2,0c1.7,0.8,3.4,1.8,5.1,3
			c0.8,0.6,1.4,1.2,2,1.9c1,0.7,2.1,1.5,3.2,2.2c8.2,5.4,15.5,8.9,25.3,12c11.6,3.6,24.9,5,37.2,4.2c27.9-1.8,53.9-11.4,77.7-23
			c16.7-8.1,27.4-21.4,26.2-37.6c-0.8-10.4-2.5-20.8-3.8-31.2c-2.8-21.7-5.9-62.7-9.2-84.3c-1.8-11.5-3-23.2-6.1-34.5
			c-3.3-11.9-10.1-22.6-20.1-31.7C305.7,8,273.4,0.8,245.5,7.1c-29.4,6.5-49,25.4-58,48.3c-3.4,8.6-5.1,17.4-7.8,26.1
			c-0.5,1.7-1.1,3.3-1.8,5c-0.2,0.5-0.8,1.8-1.3,2.9c-0.4,0.8-1,1.7-1.4,2.3c-2.8-8.1-4.8-16.4-8.7-24.3
			c-5.6-11.2-12.4-20.9-22.5-29.9c-20.4-18.1-50.8-26-80.3-21.5c-28.7,4.4-51,24.5-54.9,47.7c-2,11.8,0.3,23.2,7.6,33.7
			c8.1,11.5,28.7,16.4,42.7,9.1c13.8-7.2,19.4-21.1,12.2-33.1c-0.1,0.2-0.7-0.3-1-1.6l0,0c0,0,0,0,0,0c0,0,0,0,0-0.1c0,0,0,0,0,0
			c0,0,0,0,0-0.1c0,0,0,0,0,0c-0.1-0.3-0.2-0.5-0.2-0.7c0.1,0.1,0.2,0.3,0.3,0.4c0-0.4,0-0.8,0-1.2c0,0,0-0.1,0-0.1c0,0,0,0,0.1-0.1
			c0.2-0.3,0.5-0.7,0.7-1c0,0,0,0,0,0c0,0,0,0,0,0c0.2-0.2,0.3-0.4,0.4-0.6c-0.1,0.1-0.2,0.2-0.3,0.3c0-0.1,0.1-0.2,0.1-0.3
			c0.2-0.2,0.5-0.5,0.7-0.7c0.1-0.1,0.1-0.2,0.2-0.3c0,0,0-0.1,0.1-0.1c0.2-0.1,0.4-0.2,0.6-0.3c0.1-0.1,0.3-0.2,0.4-0.3
			c0,0,0.1,0,0.1-0.1c0,0.1-0.1,0.1-0.1,0.2c0.4-0.2,0.8-0.4,1.1-0.6c0.7-0.1,1.3-0.3,2-0.4c-0.6,0.1-1,0.1-1.2,0.1
			c1.2-0.5,1.1-0.5-0.1-0.1c0.1-0.1,0.8-0.4,2-0.4c0.6,0,1.1,0,1.7-0.1c0.5-0.1,0.9-0.2,1.4-0.3c-0.5,0.1-0.9,0.2-1.3,0.3
			c0.6,0,1.2,0,1.8,0c0.8,0,1.6,0,2.3,0.1c2.2,0.5,4.4,0.9,6.7,1.5c0.5,0.3,1,0.5,1.5,0.8c0.5,0.2,2.3,1.3,3.6,2
			c1.3,0.9,2.8,2,3.2,2.4c0.8,0.7,1.6,1.4,2.4,2.1c0.1,0.1,0.2,0.2,0.4,0.3c0.3,0.3,0.5,0.6,0.7,0.7c0.8,1,1.6,2,2.4,3
			c0.9,1.3,1.8,2.6,2.7,3.9c0-0.2,0.7,0.8,1.1,1.7c0,0.1,0.1,0.1,0.1,0.2c0.3,0.6,0.7,1.3,1.1,1.9c-0.3-0.5-0.6-1-0.9-1.4
			c0.9,2,1.7,4,2.4,6.1c2.7,7.7,4.5,15.5,8.1,23c6,12.3,15,24.3,30,30.6c17,7.1,37.8,5.5,53.8-2.8c21.5-11.1,33.2-30.2,38.8-49.7
			c2.4-8.3,4.4-16.7,7.7-24.8c-0.3,0.4-0.6,0.9-1,1.5c0.4-0.6,0.8-1.3,1.2-2c0.4-1,1.1-2,1.1-1.7c0.8-1.2,1.7-2.3,2.6-3.5
			c0.6-0.5,1.1-1,1.7-1.5c0.4-0.3,0.8-0.6,1.3-1c0.8-0.4,3.3-1.4,4.6-2c1.2-0.3,2.4-0.7,2.8-0.8c0.4-0.1,0.8-0.2,1.2-0.3
			c1.1,0,2.2-0.1,3.4-0.1c0.1,0,0.2,0,0.2,0c1.6,0.3,4,0.7,4.8,0.9c0.1,0,0.2,0,0.3,0.1c0.8,0.4,1.6,0.9,2.5,1.4
			c-0.9-0.7-0.7-1.2,0.8-0.1c0.6,0.4,1.1,0.8,1.7,1.3c0.2,0.1,0.4,0.1,0.7,0.2c-0.2,0-0.4-0.1-0.6-0.2c0.3,0.3,0.7,0.5,1,0.8
			c0-0.2,0.6,0,1.3,0.9c0.1,0.1,0.2,0.2,0.3,0.4c0.5,0.5,1.1,1.2,1.6,1.5c-0.5-0.3-0.9-0.5-1.2-0.8c0.7,1.2,1.5,2.8,2.3,3.5
			c0.3,0.8,0.6,1.6,0.9,2.5c0.8,2.3,1.4,4.6,1.9,7c0.3,1.3,0.5,2.6,0.8,3.9c0,0.1,0,0.1,0,0.2c0.3,1.6,0.5,3.3,0.8,4.9
			c0.9,5.7,1.8,11.4,2.7,17.1c1.9,12.7,3.7,25.4,5.5,38.1c-0.9,8.7-0.9,36.7-0.7,45.6c0,2.2,0.1,4.4,0,6.7c-0.6,1.7-1.2,3.4-1.9,5.1
			c-0.1,0.1-0.1,0.3-0.2,0.4c-0.2,0.3-0.3,0.6-0.5,0.9c-1,1.7-2.2,3.4-3.4,5.1c-0.2,0.3-2,2.6-3.1,3.9c-0.7,0.7-1.4,1.3-2.1,1.9
			c-2,1.8-4.2,3.5-6.4,5.1c-0.3,0.1-0.6,0.1-0.8,0.2c-5.3,1.6-10.7,2.7-16.2,3.7c-0.6,0-1.1,0.1-1.7,0.1c-2.7,0.1-5.4,0.1-8.1,0
			c-0.1,0-0.3,0-0.6,0c0,0,0,0,0,0c-1.5-0.3-3.6-0.5-5.5-0.9c-0.1-0.1-0.3-0.1-0.4-0.2c-1-0.5-2.1-0.9-3.1-1.4
			c-0.7-0.3-1.6-0.9-2.3-1.3c-5.3-3.8-10.6-7.6-16.5-10.9c-12.3-7-27.6-9.6-42.4-10.2c-10.7-0.4-23.9-0.3-34.6,2
			c-6.1,3-10.3,5.6-15.2,9.2c-0.3,0.7-0.6,1.4-1.1,2.1c-3.1,1.2-6,2.7-8.3,4.6c-0.3,0.3-0.7,0.5-1,0.8c-0.8,0.1-1.6,0.2-2.5,0.2
			c-0.3,0-0.5,0-0.8,0c-0.1,0.2-0.3,0.3-0.4,0.5c-0.2-0.1-0.5-0.2-0.7-0.3c-0.1-0.1-0.1-0.2-0.2-0.3c-0.4,0-0.7-0.1-1.1-0.2
			c-1.1-0.4-2.2-0.7-3.3-1c-0.5-0.2-1-0.5-1.5-0.7c-3.1-0.8-5.9-2.4-7.2-4.9c-4.6-8.4-13-12-23-16.8c-0.1,0-0.1-0.1-0.2-0.1
			c-14.5-2-29.5,1.8-40.8,10.4c-22.2,17-16.8,45.3-16.4,67.7c0.2,12.3-0.8,53.7,5.2,65.2c6.1,11.6,18.3,20.7,32.3,26.1
			c23.3,8.9,48.3,9.7,73.5,7.7c51-4,101.8-6.8,153.1-6.1c12.7,0.2,25.4,0.5,38.1,1.1c16.3,0.7,32-12.1,31.2-25.3
			C354.1,320.1,341.2,309.8,323.7,309z"/>
		<path class="st2" d="M70.3,71.2c0,0.1,0,0.1,0,0.2c0,0.1,0,0.1-0.1,0.1c0,0,0,0,0,0.1c0,0,0-0.1,0-0.1c0,0.1,0,0.1,0,0.2
			c0,0,0,0.1,0,0.1c0.4,0.5,0.7,1,1,1.6c0.1-0.1-0.1-0.8-1-2c0.5-1.1,0.7-1.9,0.7-2.4C70.9,69.7,70.6,70.5,70.3,71.2
			C70.3,71.2,70.3,71.2,70.3,71.2z"/>
		<path class="st2" d="M72.1,67.4C72.1,67.5,72.1,67.5,72.1,67.4c-0.2,0.3-0.4,0.5-0.5,0.7c0.9-0.7,1.5-1.2,1.8-1.6
			c-0.1,0.1-0.3,0.1-0.4,0.2C72.6,67.1,72.2,67.3,72.1,67.4z"/>
		<path class="st2" d="M248.9,66.1C248.9,66.1,248.9,66.1,248.9,66.1c-0.1,0.2-0.1,0.3-0.2,0.5c0.8-1.3,1.2-2,1.2-2.1
			c-0.2,0.3-0.5,0.7-0.7,1C249.1,65.6,249,65.8,248.9,66.1z"/>
		<path class="st2" d="M107.2,83c-0.2-0.4-0.5-0.8-0.7-1.1c0,0.1,0.4,0.8,1.4,2.4c-0.1-0.2-0.1-0.3-0.2-0.5
			C107.5,83.5,107.4,83.2,107.2,83z"/>
		<path class="st2" d="M76.4,65.6c0.6-0.1,1.4-0.2,2.5-0.5c0,0-0.1,0-0.1,0C78.1,65.3,77.3,65.5,76.4,65.6z"/>
	</g>
</g>
<g id="hypnosis" class="st0">
	<path class="st3" d="M185,9.7C88.2,9.7,9.7,88.2,9.7,185S88.2,360.3,185,360.3S360.3,281.8,360.3,185S281.8,9.7,185,9.7z
		 M111.6,166.9c-17.6,0-30.6-14.4-31.3-31.3c-0.8-16.9,14.9-31.3,31.3-31.3c17.6,0,30.6,14.4,31.3,31.3
		C143.7,152.5,128,166.9,111.6,166.9z M255.2,170.3c-17.6,0-30.6-14.4-31.3-31.3c-0.8-16.9,14.9-31.3,31.3-31.3
		c17.6,0,30.6,14.4,31.3,31.3C287.3,155.9,271.6,170.3,255.2,170.3z"/>
</g>
<g id="flute" class="st0">
	<path class="st3" d="M96.4,168.1c-1.1,4.4-2.2,9.6-7,11.6c-3.4,1.4-7.6,0.8-11-0.3c-9.9-3.2-14.8-12.5-19.2-20.8
		C50.8,142.7,37.3,122.5,15,128c-2.7,0.7-4,2.9-4.3,5.3c-2.1,19.6-4.1,39.4-1.6,59.1c1.2,9.3,3.2,18.5,6.8,27.3
		c3.7,9.1,9.2,17.2,13.8,25.8c15.1,28.1,4.9,65.4,30.7,88.9c1.8,1.6,5,2.3,7.1,0.9c8.7-5.6,18.1-10.1,27.9-13.6
		c9.1-3.3,18.7-6.9,28.3-8.9c4-0.8,8.7-1,10.2,3.2c1,2.7,0.4,6.1,0.1,8.8c-0.8,6.9-2.4,13.8-0.9,20.7c2.4,10.8,13,17,24.2,17.9
		c12.2,1,23.6-4.1,30.5-13.6c8.6-11.9,8.6-27.4,5.9-41c-3.1-15.6-13.7-32.9-7.7-48.9c2.1-5.7,6.7-11.6,13.1-13.3
		c7.8-2.1,17.3,3.3,24.4,6c17,6.4,34,13.2,49.7,22.1c26.7,15.2,55.6,46.4,89.9,30.1c2.8-1.3,3.7-5.1,2.1-7.5
		c-26.4-39.8-62.2-73.5-104.3-98.5c17.7-14.2,35.4-28.4,53.2-42.5c9.5-7.6,19.2-15,28.5-22.8c7.2-6.1,13.8-13.3,15.6-22.5
		c0.6-3.1-0.9-5.7-4.1-6.8c-17.5-5.9-35.4-0.1-51.7,6.2c-13.2,5.1-27.5,11.7-42,11.4c2.6-0.3,4.7-2,4.3-5.2
		c-0.2-1.7-0.3-3.4-0.2-5.1C275,94.3,285.7,77,296.4,59.8c2.6-4.2-1.7-9.3-6.6-8.1c-10,2.4-19.6,5.9-28.7,10.2
		c-0.7-0.3-1.6-0.6-2.5-0.6c-12.8-0.5-25.6-1-38.4-1.5c3.5-19.8,0.8-43.4-21.8-51.6c-12.1-4.4-24.3,0.1-35.4,4.6
		c-13.8,5.5-27.5,11.1-41.3,16.7c-6,2.4-12.3,5.8-18.7,7.2c-5,1.1-8.7-0.7-12.4-3.8C84.1,27.5,79,20.8,71.1,17
		c-14.6-6.9-33-5.7-46.7,2.4C7.2,29.5,1.9,47.9,4.7,66C6.4,76.4,10.4,86.3,15,95.8c4.1,8.5,9.4,17.2,18.6,21.6
		c8.9,4.2,18.8,3.7,28.5,2.8c9-0.8,19.7-2.4,27.6,2.9C103.6,132.5,99.7,154.8,96.4,168.1z"/>
</g>
</svg>
