<?xml version="1.0" encoding="utf-8"?>
<!-- Generator: Adobe Illustrator 20.1.0, SVG Export Plug-In . SVG Version: 6.00 Build 0)  -->
<svg version="1.1" id="Layer_1" xmlns="http://www.w3.org/2000/svg" xmlns:xlink="http://www.w3.org/1999/xlink" x="0px" y="0px"
	 viewBox="0 0 744.1 1052.4" style="enable-background:new 0 0 744.1 1052.4;" xml:space="preserve">
<style type="text/css">
	.st0{stroke:#FFFFFF;stroke-miterlimit:10;}
</style>
<title>Fire</title>
<g>
	<title>Layer 1</title>
	<g id="layer1">
		<path id="path2396" class="st0" d="M259.6,62.9c-16.2,26.8-17.5,85.1,29.2,130.2c53.9,68.1,67.5,119.3,66.9,218
			c-0.5,80.7-27.8,101.5-51.6,173.5c-28.1,67.6-36.6,100.1-16.3,152.3c7.2,22.7,18.4,38.9,32.6,65.1c-22.1-18.3-42.2-30.1-62.4-62.5
			c-18.7-35.8-33.6-51.2,9.2-197.8c10-34.3,23.9-85.8,28.9-121.2c1.9-24.1-0.2-60-13.3-89.7c-36.9-60-46.1-55-94.4-89.9
			c26.7,59.6,11.9,87.5-65.3,206C58.2,561.3,30.4,605,34.9,682.2c5.4,93.3,51.5,172.3,131.8,236.9c26.2,21.1,49,25.9,65.5,33.1
			l49.8,12.4c-20.2-15.2-37.4-23.8-60.6-45.6c-47.8-52.8-75.3-117.8-80.4-189.4c-3-42.5,3.5-95.8,5.4-52.3
			c1.2,8.7,6.2,36.7,10.2,42.6c8,23.7,44.9,88.8,78.4,128.6c16.9,20,51.5,54.9,78.1,74.8c48.4,29.2,69.8,33.2,106.2,38.4
			c31.4,0,69.7-6.1,57-5.1c-65.1-104.9-67.5-109.7-71.2-176.2c0.3-61.6,20.4-75.3,55.7-152.2c43.8-95.7,54.8-138.2,55-209.2
			c0.4-103-39.8-157.7-127.5-215.3c-24.4-15-31.1-19.3-75.7-40.8C286.9,148,261.3,115.8,259.6,62.9L259.6,62.9z M561.3,352.8
			c22.9,37.9,42.7,94.2,44.6,134.3c-5.1,52.3-5.3,55.9-60.8,132.5c-23.1,36.7-36.7,59.5-42.7,74.5c-17.1,42.5-17.6,149,10.5,206.9
			l23.3,48.2l10.2-36c7.9-27.5,18.5-61.7,73.3-105.5c69.2-66.7,79.9-86.3,89.9-170c1.1-55.5-5.4-95.9-38.3-161.6
			C637,415.1,606.6,395.3,561.3,352.8z"/>
	</g>
</g>
</svg>
