<?xml version="1.0" encoding="utf-8"?>
<!-- Generator: Adobe Illustrator 20.1.0, SVG Export Plug-In . SVG Version: 6.00 Build 0)  -->
<svg version="1.1" id="Layer_1" xmlns="http://www.w3.org/2000/svg" xmlns:xlink="http://www.w3.org/1999/xlink" x="0px" y="0px"
	 viewBox="0 0 370 370" style="enable-background:new 0 0 370 370;" xml:space="preserve">
<style type="text/css">
	.st0{fill:#FFFFFF;stroke:#000000;stroke-miterlimit:10;}
</style>
<title>black basketball</title>
<title>Layer 1</title>
<path class="st0" d="M-210.3,412.8c-3.4-19.7-9.7-38.6-19.6-56.2c10.4-2.3,20.8-4,30.4-0.1c4.2,1.7,8.9,5.2,13.1,8.8c0,0,0,0,0,0
	c0.4,0.1,0.8,0.3,1.1,0.4c-1.5-19.8-6.3-38.6-13.9-56c-10-2-20.5-1.7-30.7-0.7c-10.5,1-20.8,3.3-30.5,7.2c-1.5-1.6-3-3.1-4.5-4.6
	c-0.3-0.3-0.7-0.7-1-1c6.2-5.3,12.4-10.8,18.6-16c10-5.6,19.9-11.5,29.8-17.4c-11.4-15.9-25.3-29.8-41.2-41.1
	c-15.6,12.4-30.8,25.1-43.9,40.1l-8.1-7.6c2.7-3.7,5.2-7.5,7.4-11.5c6.3-11.7,11.4-26.3,10.3-40.1c-15.8-6.6-32.7-10.9-50.5-12.6
	c0.3,9.5,0.4,19.1-1.6,28.3c-0.6,2.7-1.3,5.3-2.2,8c-0.1,0.4-0.3,0.7-0.4,1.1c-3.8-3.6-7.7-7-12.1-10.2c-6.3-4.5-13.3-7.7-20.6-10.5
	c-12.8-4.9-26.2-6.6-39.8-7c0.7-0.3,1.4-0.5,2.1-0.8h-0.4c-26.5,9.2-50.1,24.7-69.1,44.6c0.8,0.2,1.7,0.4,2.4,0.7
	c1-0.9,1.9-1.8,2.9-2.7c0.5,0,1.1,0,1.6,0.1c2.2,0.8,4.6,1.3,7.1,1.2c2.8,0,5.6-0.1,8.4-0.1c9.1,0.9,18.2,2,27.2,3.2
	c7.9,1.1,17.3,1.9,24.3,3c3,0.5,6,1.1,9,1.9c1.5,0.4,2.9,0.9,4.4,1.4c0.8,0.3,1.6,0.6,2.4,0.9c0.1,0.1,0.3,0.1,0.3,0.1
	c0.1,0,0.1,0,0.2,0.1c5.4,2.4,10,5.3,14.3,8.4c-0.5,0.2-0.9,0.4-1.4,0.6c-0.1,0-0.1,0.1-0.2,0.1c-1.3,0.5-2.5,1-3.8,1.5
	c-33.3,12.3-69.4,13.4-103.4,22.7c-10.9,3-21.7,6.9-31.6,12.3c-8.3,20.4-12.9,42.7-12.9,66.1c0,0.1,0,0.2,0,0.3
	c1-0.3,2.1-0.5,3.1-0.5c1-1,2-1.9,3.1-2.8c0.5-0.4,1-0.9,1.5-1.3c0,0,0.1,0,0.1-0.1c2.7-1.9,5.4-3.7,8.2-5.3
	c2.6-1.5,5.2-2.9,7.9-4.2c1.4-0.7,2.7-1.3,4.1-1.9c0.7-0.3,1.4-0.6,2.1-0.9c0.4-0.2,1.8-0.8,1.9-0.8c29.2-12.2,59.8-21.2,90.2-29.9
	c11.8-3.4,23.3-7.3,34.4-12.6c9.5-4.5,18.7-9.8,28.4-14c0.9,0.6,1.7,1.2,2.5,1.8c1.5,1.7,3.1,3.4,4.6,5.1c-3.1,2.6-6.3,5.2-9.2,8
	c-23.3,11.6-41.4,31.9-57.8,51.9c-22.4,27.2-45.4,53.8-65.5,82.7c-7.6,11-14.8,22.4-21.5,34c12.3,15.5,27.2,28.9,44,39.5
	c6.3-6.4,11.5-14.2,16.4-21.6c10.6-15.9,20.3-32.3,30.5-48.4c9.5-14.9,19.8-29.2,30.1-43.6c9.1-12.7,18.4-25.4,28.7-37.2
	c1.4-1.6,2.8-3.2,4.2-4.7c10-10.9,20.9-20.9,33.3-28.9c0,0,0,0,0,0c2.6,2.1,5.3,4.1,8.1,6.1c-2.4,3.2-4.7,6.5-6.9,9.9
	c-9.1,14.5-15.6,30.6-20.3,47.2c-1.2,4.4-2.3,8.8-3.3,13.2c-0.1,0.3-0.1,0.5-0.2,0.8c-0.3,1.1-0.5,2.3-0.7,3.4
	c-0.1,0.6-0.2,1.2-0.4,1.8c-0.2,1-0.4,2-0.6,2.9c-0.1,0.8-0.3,1.6-0.4,2.4c-0.2,0.8-0.3,1.7-0.5,2.5c-0.2,1-0.3,2-0.5,3
	c-0.1,0.6-0.2,1.3-0.3,1.9c-0.3,1.7-0.5,3.4-0.7,5c-1.8,12.8-2.9,25.7-4.4,38.6c-0.3,3.1-0.7,6.2-1.1,9.3c0,0.1-0.1,0.5-0.1,0.9
	c-0.1,0.6-0.3,2-0.3,1.9c-0.3,1.8-0.5,3.7-0.8,5.5c-1,6.3-2.2,12.7-3.7,18.9c-0.8,3.5-1.8,6.9-2.9,10.3c-0.5,1.7-1.1,3.3-1.7,5
	c-0.3,0.8-0.6,1.6-0.9,2.4c-0.1,0.1-0.3,0.8-0.5,1.2c-0.2,0.5-0.6,1.4-0.6,1.4c-0.3,0.8-0.7,1.5-1.1,2.3c-0.7,1.5-1.5,2.9-2.3,4.3
	c-0.4,0.6-0.7,1.2-1.1,1.8c-0.5,0.8-0.9,1.5-1.4,2.3c0,0,0,0,0,0.1c-2.1,1.9-4.3,3.5-6.7,5c2.2,0.1,4.5,0.1,6.7,0.1
	c21.1,0,41.4-3.7,60.1-10.6c5.3-13.6,8.7-28.1,10.9-42.3c2.3-14.9,3.6-30,4-45.1c0.5-14.9-0.2-29.8,1.2-44.7
	c1.1-11.2,4-22.1,9.9-31.6c6.5,11.9,9.9,25.5,12.4,39.5c2.9,17,4.5,34.1,5.4,51.3c0.8,16.3,0.9,32.6,0.8,49
	c18.7-13.9,34.4-31.3,46.4-51.4C-208.3,450.5-209.9,431.5-210.3,412.8z"/>
<g>
	<path class="st0" d="M-286.2,13.5c0,38.8,0,77.6,0,116.4c0,10.6-5,18.4-14.6,22.8c-9.6,4.4-18.8,3-26.9-3.7
		c-5.5-4.6-8.5-10.7-8.7-18c-0.1-5.4,0-10.9,0-16.3c0-69.8,0-139.6,0-209.3c0-25.2-15.4-45-39.1-50.7c-30.1-7.2-60.6,15.3-61.2,46.2
		c-0.7,35-0.1,69.9-0.3,104.9c-0.1,19.6,0.6,39.3-0.9,58.9c-3.3,44.4-39.2,82.3-83.1,89.1c-47.2,7.3-91.4-17.3-109.8-61.4
		c-5.1-12.2-7.4-25-7.4-38.2c0-74.9,0-149.8,0-224.7c0-15.2,10.6-26.3,25-26.3c14.5,0,25.1,11,25.1,26.2c0,74.4,0,148.8,0,223.2
		c0,25.5,15.4,45.3,39.4,51c29.8,7.1,60.4-15.5,60.9-46.1c0.7-39.1,0.2-78.2,0.3-117.4c0-15.5-0.3-31,0.8-46.4
		c3.2-45,40.7-83.9,85.4-89.6c54.9-6.9,102.4,26.9,113.3,81.1c1.3,6.2,1.6,12.7,1.7,19C-286.1-59.3-286.2-22.9-286.2,13.5z"/>
</g>
<g>
	<path class="st0" d="M875.5,244.4c-63.1,0-137.1,0-200.3,0c0,103.4,0,181.1,0,307c-45.8,0-55.8-1.5-101.5-1.5c0-45.2,0-85,0-130.5
		c-8.7,0-39.7,0.9-48.5,0.9c0,58.8-1.6,117.3-1.6,176.1c62.7,0,139,0,202.4,0c0-104-1.5-208-1.5-312.5c45.8,0,54.8,0,100.5,0
		c0,45.1,0,90,0,135.3c8.9,0,41.8,1.1,50.6,1.1C875.5,362.3,875.5,303.1,875.5,244.4z"/>
</g>
<path class="st0" d="M-134.7-196.7c-1,4.2-2.1,9.3-6.8,11.2c-3.3,1.3-7.3,0.8-10.6-0.3c-9.6-3.1-14.3-12-18.5-20
	c-8.1-15.3-21-34.8-42.5-29.5c-2.6,0.6-3.9,2.8-4.1,5.1c-2,18.9-3.9,38-1.5,56.9c1.1,9,3.1,17.9,6.5,26.3
	c3.6,8.7,8.8,16.5,13.3,24.8c14.6,27.1,4.7,63,29.6,85.6c1.7,1.5,4.8,2.2,6.8,0.8c8.3-5.4,17.4-9.7,26.8-13.1
	c8.8-3.2,18-6.6,27.3-8.5c3.8-0.8,8.4-1,9.9,3.1c1,2.6,0.4,5.8,0.1,8.5c-0.8,6.6-2.3,13.3-0.9,19.9C-97-15.4-86.8-9.5-76.1-8.6
	c11.8,1,22.8-4,29.4-13.1c8.3-11.5,8.3-26.4,5.7-39.5c-3-15-13.2-31.7-7.4-47.1c2.1-5.4,6.4-11.1,12.6-12.8c7.5-2,16.7,3.2,23.5,5.8
	C4-109.2,20.3-102.6,35.5-94C61.2-79.4,89-49.3,122.1-65c2.7-1.3,3.6-4.9,2-7.3C98.7-110.6,64.2-143,23.7-167.1
	c17.1-13.7,34.1-27.3,51.2-41c9.1-7.3,18.5-14.5,27.4-22c7-5.9,13.3-12.8,15-21.7c0.6-3-0.9-5.5-3.9-6.5c-16.9-5.7-34.1-0.1-49.8,6
	C50.8-247.4,37-241,23-241.3c2.5-0.3,4.5-2,4.1-5c-0.2-1.6-0.3-3.3-0.2-4.9c10.3-16.6,20.6-33.2,31-49.9c2.5-4.1-1.6-8.9-6.4-7.8
	c-9.6,2.3-18.9,5.6-27.6,9.8c-0.7-0.3-1.5-0.5-2.4-0.6c-12.3-0.5-24.7-1-37-1.4c3.4-19,0.7-41.8-21-49.7
	c-11.6-4.2-23.4,0.1-34.1,4.4c-13.3,5.3-26.5,10.7-39.7,16c-5.8,2.4-11.8,5.6-18,7c-4.8,1.1-8.4-0.7-11.9-3.7
	c-6.3-5.2-11.2-11.7-18.8-15.3c-14-6.7-31.7-5.5-45,2.3c-16.5,9.7-21.6,27.5-18.9,44.9c1.6,10,5.5,19.6,9.9,28.7
	c3.9,8.1,9.1,16.6,17.9,20.8c8.6,4.1,18.1,3.5,27.4,2.7c8.7-0.8,18.9-2.3,26.5,2.8C-127.9-231-131.6-209.5-134.7-196.7z"/>
<path d="M283.2,611.6c-7.7,24.7-6.9,62.9-37.4,71.7c-12.6,3.6-22.9-3.2-26-15.8c-3.1-12.5-0.8-25.6-3.9-38.1
	c-2.8-11.4-9.8-23.3-20.9-28.4c-11-5.1-23.1-1.6-31.6,6.4c-8.8,8.3-13.9,19.7-20,30c-7.2,12-16.8,22.5-27.9,30.9
	c-21.3,16-51.2,26.7-78,21.7c-14.6-2.7-24.6-11.5-28.3-26c-3.8-15.1-2.4-31.8-1.5-47.1c1-17.6,2.9-35.1,5.2-52.6
	c1.2-9.3,2.6-18.5,3.9-27.8c0.9-6.3,1.9-12.7,4.1-18.7c1.9-5.2,5.2-10.5,10.7-12.3c7.4-2.4,15,2.7,19.8,7.9
	c10.4,11.2,14.3,26.9,18,41.3c6.5,25.2,16.8,55.6,46.7,59.6c12.8,1.8,24.9-3.3,31.8-14.5c3.5-5.8,5.5-12.4,7.1-18.9
	c2.2-8.5,4.3-17,6.5-25.5c2.1-8.4,4-17,6.5-25.3c1.5-5.2,3.7-12,8.9-14.6c12.7-6.4,24.3,18.5,29.3,26.3
	c7.8,12.1,16.9,24.4,30.3,30.6c11.8,5.5,26.4,6.9,37.5-1c10.4-7.3,14.2-19.5,15.4-31.7c1.4-15.3-0.6-31.2-1.4-46.5
	c-0.5-8.6-0.9-17.3-1.4-25.9c-0.5-7.8-1-15.8-3.5-23.2c-4.1-12.1-14.4-23.6-28.1-23.6c-13.6,0-23.9,11.4-29,23
	c-3.3,7.5-5.2,15.5-8.2,23.2c-1.2,3.1-2.9,7.8-6.3,9c-3.2,1.1-6.6-1.1-8.8-3.2c-10.5-9.9-8.2-28.4-13.1-41
	c-4.2-11.1-12.9-22.1-25.8-22.5c-14.1-0.4-24.3,12.5-27.4,25c-3.8,15.1-1.1,30.9-5.5,45.9c-3.8,13.1-14.1,26.2-29.1,26
	c-11.3-0.2-17.7-9.6-21.2-19.2c-3.7-10.3-5.8-21.2-10.3-31.3c-5-11-13.7-19.1-25.4-22.6c-12.7-3.7-26.8-2.4-39.7-0.2
	c-13.2,2.2-25,9.2-27.3,23.4c-2.1,13,3.1,25.9,1.2,38.8c-1,6.3,8.7,9,9.6,2.7c1-6.7,0.6-13.2-0.1-19.9c-0.8-6.6-2.1-13.7-0.8-20.3
	c2.8-14.8,20.8-15.7,32.9-16.5c12.9-0.8,27.6,0.3,36.1,11.3c6.5,8.4,8.7,19.4,11.6,29.3c2.9,9.7,6.4,20.3,14.3,27.1
	c9.6,8.3,22.6,9.1,33.9,4c12.6-5.7,20.4-17.7,24-30.7c1.9-6.9,2.8-14.1,3.2-21.2c0.5-8.6,0.1-17.3,2.6-25.6
	c1.9-6.4,6.3-13.2,13-15.3c6.3-2,12.1,1.5,15.9,6.4c8.9,11.6,7.3,27.2,12.2,40.4c4,10.8,15.2,24.2,28.3,18.3
	c6.8-3.1,9.7-10.4,12.1-17c2.8-7.6,4.6-15.8,8.4-23c3-5.8,7.8-11.5,14.2-13.5c6.6-2,12.9,1.1,17.3,6c10.7,12,8.8,32.4,9.6,47.4
	c0.9,15.9,2.5,32,2.3,48c-0.2,12.1-2.5,27.4-15.2,32.7c-13.3,5.6-28.3-2.6-37.4-12.2c-10.3-11-16.4-24.9-25.8-36.5
	c-8-9.9-21.9-16.9-33-7.2c-10.1,8.9-11.9,25.4-15,37.7c-2.3,9-4.5,18-6.8,27c-1.7,6.9-3.2,14.1-6.8,20.3c-6.9,11.9-21.3,12.8-32.7,7
	c-12.9-6.6-19.4-20.5-23.6-33.8c-4.5-14.1-7-28.7-12.9-42.3c-5.5-12.5-14.9-25.8-28.9-29.3c-13.1-3.3-23.9,4.7-29,16.4
	c-5.8,13.3-6.5,28.9-8.4,43.1c-2.4,17.6-4.6,35.2-5.9,52.9c-1.2,15.9-2.4,32.4-0.5,48.4c1.6,13.4,6.1,26.5,17.3,34.9
	c21.6,16.2,55.7,10.2,78.8,0.7c25.2-10.4,46.4-28.8,59.9-52.5c5.7-9.9,11.2-22.7,21.5-28.6c11.5-6.5,22.3,1.8,27.6,12
	c10.9,21.1-3.1,55.9,23.2,68.6c10.4,5,22.7,2.7,32.4-3c11.7-6.8,18.9-17.7,23.3-30.3c5-14.3,6.4-29.6,11-44
	C294.8,608.1,285.1,605.5,283.2,611.6z"/>
<g>
	<path class="st0" d="M258.9,79.8c-0.3-0.3-0.5-0.5-0.8-0.8c0,0.3,0.4,1.1,1.7,2.2c-0.1-0.3-0.2-0.5-0.4-0.7
		C259.3,80.1,259.1,79.9,258.9,79.8z"/>
	<path class="st0" d="M74.6,89C74.6,89,74.6,89,74.6,89C74.6,89,74.6,89,74.6,89C74.6,89,74.6,89,74.6,89C74.6,88.9,74.6,89,74.6,89
		z"/>
	<path class="st0" d="M255,76.8c0.5,0.4,1.2,1,2.3,1.3c0,0,0,0,0,0C256.5,77.8,255.7,77.3,255,76.8z"/>
	<path class="st0" d="M297.6,297.6c-46.6-2.3-93.4-1.5-139.9,2.6c-10.8,1-21.6,2.3-32.5,3.2c-4.6,0.4-9.2,0.7-13.8,0.7
		c-2.1,0-4.3,0-6.4-0.1c-1.3-0.1-2.7-0.1-4-0.2c-0.1,0-0.2,0-0.3,0c-1.5-0.3-4.1-0.7-4.8-0.9c-2-0.5-3.9-1.2-5.8-1.7
		c-0.4-0.3-0.9-0.5-1.3-0.8c-0.6-0.3-1.2-0.7-1.8-1.1c-0.1-1.8-0.4-3.8-0.4-4.4c0-3.2-0.1-6.4-0.1-9.6c0-3.6-0.1-7.2-0.2-10.8
		c1.5,1,3,1.9,4.6,2.6c12.1,5.8,26.3,7.5,39.1,3.1c12.4-4.2,21.4-12,28-22.9c1.8-0.1,3.5-0.2,5.3-0.3c2.5-0.1,4.9-0.1,7.4,0
		c0.6,0,1.2,0.1,1.8,0.1c0.9,0.3,1.8,0.6,2.7,0.8c-1.4-0.6-0.5-0.9,1,0c0.2,0.1,0.5,0.3,0.8,0.5c0.3,0.1,0.6,0.1,0.9,0.2
		c0,0,0,0,0,0c-0.3-0.1-0.6-0.1-0.8-0.2c0.8,0.5,1.7,1.2,2.5,1.7c0.5,0.5,1,0.9,1.6,1.4c1.9,1.6,3.7,3.3,5.6,4.8
		c7.2,5.8,13.6,9.7,22.3,13.1c10.2,4,21.9,5.4,32.8,4.6c24.6-1.9,47.5-12.4,68.4-25c14.7-8.8,24.1-23.3,23.1-40.9
		c-0.7-11.3-2.2-22.6-3.4-33.9c-2.5-23.6-5.2-47.1-8.1-70.6c-1.6-12.5-2.6-25.2-5.3-37.5c-2.9-12.9-8.9-24.5-17.7-34.4
		c-17.1-19.3-45.5-27-70.1-20.2c-25.9,7.1-43.1,27.6-51,52.5c-3,9.3-4.5,18.9-6.9,28.4c-0.5,1.8-1,3.6-1.5,5.4
		c-0.2,0.5-0.7,1.9-1.2,3.2c-0.4,0.8-0.9,1.8-1.2,2.5c-2.5-8.8-4.2-17.9-7.7-26.4c-4.9-12.1-10.9-22.7-19.8-32.5
		C121.4,35,94.6,26.5,68.6,31.4c-25.3,4.7-44.9,26.6-48.3,51.8c-1.7,12.8,0.3,25.2,6.7,36.6c7.1,12.5,25.2,17.8,37.6,9.9
		c12.1-7.8,17-22.9,10.7-35.9c-0.1,0.2-0.6-0.4-0.9-1.7l0,0c0,0,0,0,0,0c0,0,0,0,0-0.1c0,0,0,0,0,0c0,0,0,0,0-0.1c0,0,0,0,0,0
		c-0.1-0.3-0.1-0.6-0.2-0.8c0.1,0.1,0.2,0.3,0.3,0.4c0-0.4,0-0.8,0-1.3c0,0,0-0.1,0-0.1c0,0,0,0,0-0.1c0.2-0.4,0.4-0.7,0.6-1.1
		c0,0,0,0,0,0c0,0,0,0,0,0c0.1-0.2,0.3-0.5,0.4-0.7c-0.1,0.1-0.2,0.2-0.3,0.3c0-0.1,0.1-0.2,0.1-0.3c0.2-0.3,0.4-0.5,0.6-0.7
		c0.1-0.1,0.1-0.2,0.2-0.3c0,0,0-0.1,0.1-0.1c0.2-0.1,0.4-0.2,0.6-0.3c0.2-0.2,0.3-0.3,0.5-0.5c0,0.1-0.1,0.2-0.2,0.3
		c0.3-0.2,0.7-0.4,1-0.6c0.6-0.1,1.2-0.3,1.7-0.4c-0.6,0.1-0.9,0.1-1,0.1c1-0.5,1-0.5-0.1-0.1c0.1-0.2,0.7-0.4,1.8-0.4
		c0.5,0,1,0,1.5-0.1c0.4-0.1,0.8-0.2,1.2-0.4c-0.4,0.1-0.8,0.3-1.2,0.4c0.5,0,1,0,1.5,0c0.7,0,1.4,0,2.1,0.1c2,0.5,3.9,1,5.9,1.6
		c0.5,0.3,0.9,0.6,1.3,0.8c0.4,0.3,2.1,1.4,3.2,2.1c1.1,1,2.5,2.2,2.8,2.6c0.7,0.7,1.4,1.5,2.1,2.3c0.1,0.1,0.2,0.2,0.3,0.4
		c0.2,0.3,0.4,0.6,0.6,0.8c0.7,1.1,1.4,2.2,2.1,3.3c0.8,1.4,1.6,2.8,2.3,4.3c0-0.2,0.6,0.9,0.9,1.9c0,0.1,0,0.1,0.1,0.2
		c0.3,0.7,0.6,1.4,0.9,2c-0.3-0.6-0.5-1-0.8-1.5c0.8,2.2,1.5,4.4,2.1,6.6c2.3,8.4,3.9,16.9,7.1,25c5.3,13.3,13.2,26.4,26.4,33.2
		c15,7.8,33.3,6,47.4-3c18.9-12.1,29.2-32.8,34.1-54c2.1-9.1,3.9-18.1,6.8-27c-0.2,0.5-0.5,1-0.9,1.6c0.4-0.7,0.7-1.4,1-2.1
		c0.3-1,1-2.2,0.9-1.8c0.7-1.3,1.5-2.5,2.2-3.8c0.5-0.5,1-1.1,1.5-1.6c0.4-0.4,0.7-0.7,1.1-1c0.7-0.4,2.9-1.5,4-2.1
		c1-0.4,2.1-0.7,2.5-0.8c0.3-0.1,0.7-0.2,1.1-0.3c1,0,2-0.1,3-0.1c0.1,0,0.1,0,0.2,0c1.4,0.3,3.5,0.8,4.2,1c0.1,0,0.2,0,0.3,0.1
		c0.7,0.4,1.4,1,2.2,1.5c-0.8-0.8-0.6-1.3,0.7-0.1c0.5,0.5,1,0.9,1.5,1.4c0.2,0.1,0.4,0.2,0.6,0.2c-0.2-0.1-0.4-0.1-0.5-0.2
		c0.3,0.3,0.6,0.6,0.9,0.8c0-0.3,0.5,0,1.1,1c0.1,0.1,0.1,0.3,0.2,0.4c0.4,0.6,1,1.3,1.4,1.6c-0.4-0.3-0.8-0.6-1.1-0.8
		c0.6,1.3,1.4,3,2,3.8c0.3,0.9,0.6,1.8,0.8,2.7c0.7,2.5,1.2,5,1.7,7.6c0.3,1.4,0.4,2.9,0.7,4.3c0,0.1,0,0.1,0,0.2
		c0.2,1.8,0.5,3.6,0.7,5.4c0.8,6.2,1.6,12.4,2.3,18.6c2.7,22.2,5.2,44.4,7.5,66.7c0.6,5.9,1.2,11.8,1.8,17.7
		c0.2,2.1,0.4,4.2,0.6,6.3c-4.2,2.3-8.4,4.6-12.6,6.7c-2.2,1.1-4.4,2.1-6.6,3.2c-0.6,0.3-1,0.5-1.3,0.6c-0.6,0.2-1.1,0.3-1.4,0.4
		c-4.7,1.7-9.4,2.9-14.3,4c-0.5,0-1,0.1-1.5,0.1c-2.4,0.1-4.8,0.1-7.1,0c-0.1,0-0.3,0-0.5,0c0,0,0,0,0,0c-1.3-0.4-3.2-0.6-4.8-1
		c-0.1-0.1-0.2-0.1-0.4-0.2c-0.9-0.5-1.8-1-2.7-1.5c-0.6-0.3-1.4-1-2-1.4c-4.7-4.1-9.4-8.3-14.5-11.9c-10.8-7.6-24.3-10.5-37.4-11.1
		c-10.4-0.5-23.6-0.4-33.4,3c-9.4,3.3-16.2,8.8-22.1,16.8c-0.4,0.5-0.7,1-1,1.4c-5-8.9-11.3-17.7-20.5-22.6
		c-16.1-8.5-34.8-5.1-47.9,7.2c-19.6,18.5-14.8,49.2-14.4,73.5c0.2,13.4-0.7,27.3,4.6,39.9c5.3,12.6,16.1,22.5,28.5,28.3
		c20.5,9.6,42.6,10.5,64.7,8.4c44.9-4.3,89.7-7.4,134.8-6.6c11.2,0.2,22.3,0.6,33.5,1.1c14.4,0.7,28.1-13.2,27.5-27.5
		C324.4,309.6,313,298.4,297.6,297.6z M171.1,123.1c-0.1-0.1-0.2-0.2-0.3-0.3c-0.4-0.6-1-1.4-1.1-1.6c-0.1-0.2-0.2-0.4-0.3-0.6
		C169.8,120.8,170.6,121.7,171.1,123.1z M160.4,253.4c0.2-0.3,0.3-0.5,0.5-0.8C162.2,250.3,163.7,250.3,160.4,253.4z M152.1,257.8
		c0.5,0,0.9-0.1,1.4-0.1c0,0,0.1,0,0.3,0c0,0,0.1,0,0.1,0C148.4,259,150,257.9,152.1,257.8z M86.8,302.2c0.1,0,0.1-0.2,0.2-0.3
		c0.1,0.1,0.1,0,0-0.3c0-0.4,0-1,0-1.7C87.3,300.8,87.4,301.8,86.8,302.2z"/>
	<path class="st0" d="M86.5,299c0.1,0.1,0.1,0.1,0.2,0.2c0,0,0,0,0,0C86.7,299.1,86.6,299,86.5,299z"/>
	<path class="st0" d="M74.5,91.3c0,0.1,0,0.1,0,0.2c0,0.1,0,0.1-0.1,0.2c0,0,0,0.1,0,0.1c0,0,0-0.1,0-0.1c0,0.1,0,0.1,0,0.2
		c0,0,0,0.1,0,0.1c0.3,0.6,0.6,1.1,0.9,1.7c0.1-0.2-0.1-0.9-0.8-2.2c0.4-1.2,0.6-2.1,0.6-2.7C75,89.7,74.8,90.6,74.5,91.3
		C74.5,91.4,74.5,91.3,74.5,91.3z"/>
	<path class="st0" d="M76.1,87.3C76.1,87.3,76,87.3,76.1,87.3c-0.2,0.3-0.3,0.5-0.5,0.8c0.8-0.8,1.3-1.3,1.6-1.7
		c-0.1,0.1-0.2,0.1-0.3,0.2C76.5,86.9,76.2,87.2,76.1,87.3z"/>
	<path class="st0" d="M175.3,258.1c0.4,0.2,1,0.4,1.8,0.5c0,0,0,0-0.1,0C176.5,258.5,175.9,258.3,175.3,258.1z"/>
	<path class="st0" d="M231.7,85.8C231.7,85.8,231.7,85.8,231.7,85.8c-0.1,0.2-0.1,0.3-0.2,0.5c0.7-1.4,1-2.1,1.1-2.3
		c-0.2,0.4-0.4,0.7-0.6,1.1C231.9,85.3,231.8,85.5,231.7,85.8z"/>
	<path class="st0" d="M107,104.1c-0.2-0.4-0.4-0.8-0.6-1.2c0,0.1,0.3,0.9,1.2,2.6c-0.1-0.2-0.1-0.4-0.2-0.5
		C107.2,104.7,107.1,104.4,107,104.1z"/>
	<path class="st0" d="M79.9,85.3c0.5-0.1,1.2-0.3,2.2-0.5c0,0-0.1,0-0.1,0C81.3,84.9,80.6,85.1,79.9,85.3z"/>
</g>
</svg>
