<?xml version="1.0" encoding="utf-8"?>
<!-- Generator: Adobe Illustrator 20.1.0, SVG Export Plug-In . SVG Version: 6.00 Build 0)  -->
<svg version="1.1" id="Layer_1" xmlns="http://www.w3.org/2000/svg" xmlns:xlink="http://www.w3.org/1999/xlink" x="0px" y="0px"
	 viewBox="0 0 370 370" style="enable-background:new 0 0 370 370;" xml:space="preserve">
<style type="text/css">
	.st0{fill:#FFFFFF;stroke:#000000;stroke-miterlimit:10;}
</style>
<title>black basketball</title>
<title>Layer 1</title>
<path class="st0" d="M-210.3,412.8c-3.4-19.7-9.7-38.6-19.6-56.2c10.4-2.3,20.8-4,30.4-0.1c4.2,1.7,8.9,5.2,13.1,8.8c0,0,0,0,0,0
	c0.4,0.1,0.8,0.3,1.1,0.4c-1.5-19.8-6.3-38.6-13.9-56c-10-2-20.5-1.7-30.7-0.7c-10.5,1-20.8,3.3-30.5,7.2c-1.5-1.6-3-3.1-4.5-4.6
	c-0.3-0.3-0.7-0.7-1-1c6.2-5.3,12.4-10.8,18.6-16c10-5.6,19.9-11.5,29.8-17.4c-11.4-15.9-25.3-29.8-41.2-41.1
	c-15.6,12.4-30.8,25.1-43.9,40.1l-8.1-7.6c2.7-3.7,5.2-7.5,7.4-11.5c6.3-11.7,11.4-26.3,10.3-40.1c-15.8-6.6-32.7-10.9-50.5-12.6
	c0.3,9.5,0.4,19.1-1.6,28.3c-0.6,2.7-1.3,5.3-2.2,8c-0.1,0.4-0.3,0.7-0.4,1.1c-3.8-3.6-7.7-7-12.1-10.2c-6.3-4.5-13.3-7.7-20.6-10.5
	c-12.8-4.9-26.2-6.6-39.8-7c0.7-0.3,1.4-0.5,2.1-0.8h-0.4c-26.5,9.2-50.1,24.7-69.1,44.6c0.8,0.2,1.7,0.4,2.4,0.7
	c1-0.9,1.9-1.8,2.9-2.7c0.5,0,1.1,0,1.6,0.1c2.2,0.8,4.6,1.3,7.1,1.2c2.8,0,5.6-0.1,8.4-0.1c9.1,0.9,18.2,2,27.2,3.2
	c7.9,1.1,17.3,1.9,24.3,3c3,0.5,6,1.1,9,1.9c1.5,0.4,2.9,0.9,4.4,1.4c0.8,0.3,1.6,0.6,2.4,0.9c0.1,0.1,0.3,0.1,0.3,0.1
	c0.1,0,0.1,0,0.2,0.1c5.4,2.4,10,5.3,14.3,8.4c-0.5,0.2-0.9,0.4-1.4,0.6c-0.1,0-0.1,0.1-0.2,0.1c-1.3,0.5-2.5,1-3.8,1.5
	c-33.3,12.3-69.4,13.4-103.4,22.7c-10.9,3-21.7,6.9-31.6,12.3c-8.3,20.4-12.9,42.7-12.9,66.1c0,0.1,0,0.2,0,0.3
	c1-0.3,2.1-0.5,3.1-0.5c1-1,2-1.9,3.1-2.8c0.5-0.4,1-0.9,1.5-1.3c0,0,0.1,0,0.1-0.1c2.7-1.9,5.4-3.7,8.2-5.3
	c2.6-1.5,5.2-2.9,7.9-4.2c1.4-0.7,2.7-1.3,4.1-1.9c0.7-0.3,1.4-0.6,2.1-0.9c0.4-0.2,1.8-0.8,1.9-0.8c29.2-12.2,59.8-21.2,90.2-29.9
	c11.8-3.4,23.3-7.3,34.4-12.6c9.5-4.5,18.7-9.8,28.4-14c0.9,0.6,1.7,1.2,2.5,1.8c1.5,1.7,3.1,3.4,4.6,5.1c-3.1,2.6-6.3,5.2-9.2,8
	c-23.3,11.6-41.4,31.9-57.8,51.9c-22.4,27.2-45.4,53.8-65.5,82.7c-7.6,11-14.8,22.4-21.5,34c12.3,15.5,27.2,28.9,44,39.5
	c6.3-6.4,11.5-14.2,16.4-21.6c10.6-15.9,20.3-32.3,30.5-48.4c9.5-14.9,19.8-29.2,30.1-43.6c9.1-12.7,18.4-25.4,28.7-37.2
	c1.4-1.6,2.8-3.2,4.2-4.7c10-10.9,20.9-20.9,33.3-28.9c0,0,0,0,0,0c2.6,2.1,5.3,4.1,8.1,6.1c-2.4,3.2-4.7,6.5-6.9,9.9
	c-9.1,14.5-15.6,30.6-20.3,47.2c-1.2,4.4-2.3,8.8-3.3,13.2c-0.1,0.3-0.1,0.5-0.2,0.8c-0.3,1.1-0.5,2.3-0.7,3.4
	c-0.1,0.6-0.2,1.2-0.4,1.8c-0.2,1-0.4,2-0.6,2.9c-0.1,0.8-0.3,1.6-0.4,2.4c-0.2,0.8-0.3,1.7-0.5,2.5c-0.2,1-0.3,2-0.5,3
	c-0.1,0.6-0.2,1.3-0.3,1.9c-0.3,1.7-0.5,3.4-0.7,5c-1.8,12.8-2.9,25.7-4.4,38.6c-0.3,3.1-0.7,6.2-1.1,9.3c0,0.1-0.1,0.5-0.1,0.9
	c-0.1,0.6-0.3,2-0.3,1.9c-0.3,1.8-0.5,3.7-0.8,5.5c-1,6.3-2.2,12.7-3.7,18.9c-0.8,3.5-1.8,6.9-2.9,10.3c-0.5,1.7-1.1,3.3-1.7,5
	c-0.3,0.8-0.6,1.6-0.9,2.4c-0.1,0.1-0.3,0.8-0.5,1.2c-0.2,0.5-0.6,1.4-0.6,1.4c-0.3,0.8-0.7,1.5-1.1,2.3c-0.7,1.5-1.5,2.9-2.3,4.3
	c-0.4,0.6-0.7,1.2-1.1,1.8c-0.5,0.8-0.9,1.5-1.4,2.3c0,0,0,0,0,0.1c-2.1,1.9-4.3,3.5-6.7,5c2.2,0.1,4.5,0.1,6.7,0.1
	c21.1,0,41.4-3.7,60.1-10.6c5.3-13.6,8.7-28.1,10.9-42.3c2.3-14.9,3.6-30,4-45.1c0.5-14.9-0.2-29.8,1.2-44.7
	c1.1-11.2,4-22.1,9.9-31.6c6.5,11.9,9.9,25.5,12.4,39.5c2.9,17,4.5,34.1,5.4,51.3c0.8,16.3,0.9,32.6,0.8,49
	c18.7-13.9,34.4-31.3,46.4-51.4C-208.3,450.5-209.9,431.5-210.3,412.8z"/>
<g>
	<path class="st0" d="M847.9,499.4c0-36.4,0.1-72.8-0.1-109.2c0-6.3-0.4-12.8-1.7-19c-10.9-54.1-58.4-88-113.3-81.1
		c-44.7,5.7-82.1,44.6-85.4,89.6c-1.1,15.4-0.7,30.9-0.8,46.4c-0.1,39.1,0.4,78.2-0.3,117.4c-0.6,30.6-31.1,53.1-60.9,46.1
		c-24-5.7-39.4-25.5-39.4-51c0-74.4,0-148.8,0-223.2c0-15.2-10.6-26.2-25.1-26.2c-14.4,0-25,11.1-25,26.3c0,74.9,0,149.8,0,224.7
		c0,13.2,2.3,26,7.4,38.2c18.4,44.1,62.6,68.8,109.8,61.4c43.9-6.8,79.8-44.7,83.1-89.1c1.4-19.5,0.8-39.2,0.9-58.9
		c0.1-35-0.4-69.9,0.3-104.9c0.6-30.9,31.1-53.4,61.2-46.2c23.8,5.7,39.1,25.5,39.1,50.7c0,69.8,0,139.6,0,209.3
		c0,5.4-0.1,10.9,0,16.3c0.2,7.3,3.1,13.4,8.7,18c8.1,6.7,17.3,8.1,26.9,3.7c9.6-4.4,14.5-12.3,14.6-22.8
		C848,577,847.9,538.2,847.9,499.4z"/>
	<path class="st0" d="M-121,52.4c0,38.8,0,77.6,0,116.4c0,10.6-5,18.4-14.6,22.8c-9.6,4.4-18.8,3-26.9-3.7c-5.5-4.6-8.5-10.7-8.7-18
		c-0.1-5.4,0-10.9,0-16.3c0-69.8,0-139.6,0-209.3c0-25.2-15.4-45-39.1-50.7c-30.1-7.2-60.6,15.3-61.2,46.2
		c-0.7,35-0.1,69.9-0.3,104.9c-0.1,19.6,0.6,39.3-0.9,58.9c-3.3,44.4-39.2,82.3-83.1,89.1c-47.2,7.3-91.4-17.3-109.8-61.4
		c-5.1-12.2-7.4-25-7.4-38.2c0-74.9,0-149.8,0-224.7c0-15.2,10.6-26.3,25-26.3c14.5,0,25.1,11,25.1,26.2c0,74.4,0,148.8,0,223.2
		c0,25.5,15.4,45.3,39.4,51c29.8,7.1,60.4-15.5,60.9-46.1c0.7-39.1,0.2-78.2,0.3-117.4c0-15.5-0.3-31,0.8-46.4
		c3.2-45,40.7-83.9,85.4-89.6c54.9-6.9,102.4,26.9,113.3,81.1c1.3,6.2,1.6,12.7,1.7,19C-120.9-20.4-121,16-121,52.4z"/>
</g>
<g>
	<path class="st0" d="M-236,379.1c63.1,0,137.1,0,200.3,0c0,103.4,0,181.1,0,307c45.8,0,55.8-1.5,101.5-1.5c0-45.2,0-85,0-130.5
		c8.7,0,39.7,0.9,48.5,0.9c0,58.8,1.6,117.3,1.6,176.1c-62.7,0-139,0-202.4,0c0-104,1.5-208,1.5-312.5c-45.8,0-54.8,0-100.5,0
		c0,45.1,0,90,0,135.3c-8.9,0-41.8,1.1-50.6,1.1C-236,497-236,437.8-236,379.1z"/>
</g>
<path class="st0" d="M99.7,168.7c-1,4.2-2.1,9.3-6.8,11.2c-3.3,1.3-7.3,0.8-10.6-0.3c-9.6-3.1-14.3-12-18.5-20
	c-8.1-15.3-21-34.8-42.5-29.5c-2.6,0.6-3.9,2.8-4.1,5.1c-2,18.9-3.9,38-1.5,56.9c1.1,9,3.1,17.9,6.5,26.3
	c3.6,8.7,8.8,16.5,13.3,24.8c14.6,27.1,4.7,63,29.6,85.6c1.7,1.5,4.8,2.2,6.8,0.8c8.3-5.4,17.4-9.7,26.8-13.1
	c8.8-3.2,18-6.6,27.3-8.5c3.8-0.8,8.4-1,9.9,3.1c1,2.6,0.4,5.8,0.1,8.5c-0.8,6.6-2.3,13.3-0.9,19.9c2.3,10.4,12.5,16.3,23.3,17.2
	c11.8,1,22.8-4,29.4-13.1c8.3-11.5,8.3-26.4,5.7-39.5c-3-15-13.2-31.7-7.4-47.1c2.1-5.4,6.4-11.1,12.6-12.8c7.5-2,16.7,3.2,23.5,5.8
	c16.4,6.1,32.7,12.7,47.9,21.3c25.7,14.6,53.6,44.7,86.6,29c2.7-1.3,3.6-4.9,2-7.3c-25.4-38.3-59.9-70.8-100.5-94.8
	c17.1-13.7,34.1-27.3,51.2-41c9.1-7.3,18.5-14.5,27.4-22c7-5.9,13.3-12.8,15-21.7c0.6-3-0.9-5.5-3.9-6.5c-16.9-5.7-34.1-0.1-49.8,6
	c-12.7,4.9-26.5,11.3-40.5,11c2.5-0.3,4.5-2,4.1-5c-0.2-1.6-0.3-3.3-0.2-4.9c10.3-16.6,20.6-33.2,31-49.9c2.5-4.1-1.6-8.9-6.4-7.8
	c-9.6,2.3-18.9,5.6-27.6,9.8c-0.7-0.3-1.5-0.5-2.4-0.6c-12.3-0.5-24.7-1-37-1.4c3.4-19,0.7-41.8-21-49.7
	c-11.6-4.2-23.4,0.1-34.1,4.4c-13.3,5.3-26.5,10.7-39.7,16c-5.8,2.4-11.8,5.6-18,7c-4.8,1.1-8.4-0.7-11.9-3.7
	c-6.3-5.2-11.2-11.7-18.8-15.3c-14-6.7-31.7-5.5-45,2.3C13.8,35.2,8.7,53,11.4,70.4c1.6,10,5.5,19.6,9.9,28.7
	c3.9,8.1,9.1,16.6,17.9,20.8c8.6,4.1,18.1,3.5,27.4,2.7c8.7-0.8,18.9-2.3,26.5,2.8C106.6,134.5,102.8,155.9,99.7,168.7z"/>
</svg>
