<?xml version="1.0" encoding="utf-8"?>
<!-- Generator: Adobe Illustrator 20.1.0, SVG Export Plug-In . SVG Version: 6.00 Build 0)  -->
<svg version="1.1" id="Layer_1" xmlns="http://www.w3.org/2000/svg" xmlns:xlink="http://www.w3.org/1999/xlink" x="0px" y="0px"
	 viewBox="0 0 744.1 1052.4" style="enable-background:new 0 0 744.1 1052.4;" xml:space="preserve">
<style type="text/css">
	.st0{fill:#FFFFFF;}
</style>
<g>
	<path d="M36.9,740c0-199.1,0-398.3,0-597.4c1.2-3.9,2.5-7.7,3.6-11.6c5.3-18.6,17-31.7,35.3-37.6c14.6-4.7,35.7,4.2,46,20.8
		c8.9,14.4,11.3,30.1,11.3,46.6c-0.1,180.6-0.1,361.1,0,541.7c0,21.5,3.3,42.4,11.3,62.5c11.9,29.9,32.2,52.3,62.6,62.7
		c27.9,9.6,54.4,1.6,76-17.3c27.5-24.1,41.1-55.8,41.5-92.4c0.7-61.8,0.5-123.7,0.8-185.5c0.3-68.3-0.7-136.5,1.3-204.8
		c2.4-82.3,30.8-152.8,98.6-204.5c22.7-17.3,48.3-25.8,75.3-29.6c27.6-3.9,54.4,2.2,80.5,12.7c27,10.9,48.9,28.5,67.3,49.9
		c26.7,31.1,44,67.7,53.4,107.7c3.7,15.7,6.4,31.6,9.5,47.4c0,199.1,0,398.3,0,597.4c-3.8,8.3-6.4,17.3-11.5,24.6
		c-16.7,24.1-46.8,31.4-69.1,5.2c-11.3-13.3-15.5-28.5-15.5-45.7c0.1-181.6,0.1-363.1,0-544.7c0-27-4.4-53.2-16.9-77.6
		c-13.6-26.5-34.9-44.5-63.2-52.6c-25.1-7.3-48.1,1.8-67.2,17.2c-28.3,22.8-42.3,54-43.9,90.2c-1.3,29.6-1.3,59.3-1.4,89
		c-0.3,98.6,0.5,197.2-0.6,295.7c-1,84.9-27.1,159-97.3,212.9c-19.9,15.3-42.2,25.2-66.3,29.5c-38.9,6.9-75.5-0.3-110-20.8
		c-22.1-13.1-40.4-29.9-55.7-49.9c-25.6-33.4-41.7-71.5-49.8-112.8C40.6,759.1,38.8,749.6,36.9,740z"/>
	<path class="st0" d="M36.9,740c1.9,9.6,3.7,19.1,5.6,28.7c8.1,41.4,24.2,79.4,49.8,112.8c15.3,19.9,33.6,36.8,55.7,49.9
		c34.5,20.5,71.1,27.7,110,20.8c24.1-4.3,46.3-14.2,66.3-29.5c70.2-53.9,96.3-128,97.3-212.9c1.1-98.6,0.4-197.1,0.6-295.7
		c0.1-29.7,0.1-59.3,1.4-89c1.6-36.1,15.7-67.4,43.9-90.2c19.1-15.4,42.1-24.5,67.2-17.2c28.3,8.2,49.6,26.1,63.2,52.6
		c12.5,24.4,16.9,50.6,16.9,77.6c0.1,181.6,0.1,363.1,0,544.7c0,17.2,4.2,32.4,15.5,45.7c22.3,26.2,52.4,18.9,69.1-5.2
		c5.1-7.3,7.7-16.4,11.5-24.6c0,16.6,0,33.2,0,49.7c-224.7,0-449.3,0-674,0C36.9,885.4,36.9,812.7,36.9,740z"/>
</g>
</svg>
