<?xml version="1.0" encoding="utf-8"?>
<!-- Generator: Adobe Illustrator 20.1.0, SVG Export Plug-In . SVG Version: 6.00 Build 0)  -->
<svg version="1.1" id="Layer_1" xmlns="http://www.w3.org/2000/svg" xmlns:xlink="http://www.w3.org/1999/xlink" x="0px" y="0px"
	 viewBox="0 0 24 24" style="enable-background:new 0 0 24 24;" xml:space="preserve">
<style type="text/css">
	.st0{stroke:#FFFFFF;stroke-width:0.9921;stroke-miterlimit:10;}
	.st1{fill:none;stroke:#000000;stroke-width:2.126;stroke-linecap:round;stroke-linejoin:round;}
</style>
<g>
	<polygon class="st0" points="11.8,13.7 7.7,18.9 13.7,19.1 18.4,14.9 	"/>
	<polygon class="st0" points="18.8,12.2 16.2,6.9 9.9,4.7 12.2,11 	"/>
	<polygon class="st0" points="9.6,12.1 7.3,5.8 3.9,11.5 5.5,17.3 	"/>
</g>
<g>
	<line class="st1" x1="4.2" y1="21" x2="5.6" y2="19.2"/>
	<polyline class="st1" points="5.6,19.2 11.2,12.2 22.4,14.3 14.3,21.4 	"/>
	<polyline class="st1" points="4.2,21 4.2,21.1 14.3,21.4 	"/>
	<polyline class="st1" points="18,5.1 7.3,1.4 11.3,12.1 22.4,14.2 18,5.1 	"/>
	<polyline class="st1" points="5.6,19.2 11.2,12.2 7.2,1.4 1.6,11.2 4.2,21 	"/>
	<polyline class="st1" points="4.2,21 4.2,21.1 5.6,19.2 	"/>
	<path class="st1" d="M1.6,11.2"/>
	<path class="st1" d="M18,5.1"/>
	<path class="st1" d="M14.3,21.4"/>
</g>
</svg>
