<?xml version="1.0" encoding="utf-8"?>
<!-- Generator: Adobe Illustrator 20.1.0, SVG Export Plug-In . SVG Version: 6.00 Build 0)  -->
<svg version="1.1" id="Layer_1" xmlns="http://www.w3.org/2000/svg" xmlns:xlink="http://www.w3.org/1999/xlink" x="0px" y="0px"
	 viewBox="0 0 744.1 1052.4" style="enable-background:new 0 0 744.1 1052.4;" xml:space="preserve">
<style type="text/css">
	.st0{fill:#FFFFFF;}
</style>
<title>Fire</title>
<g>
	<path class="st0" d="M413.5,853.9c5.5,1.5,9.6,3,13.8,3.6c40.8,6,81.6,12.2,122.5,17.5c4.9,0.6,10.4-3.6,15.6-5.5
		c-3.3-5.1-5.7-11.1-9.9-15.1c-21-20.1-42.6-39.6-63.7-59.5c-3.2-3-5.1-7.5-9.7-14.4c6.5,1,9,1.2,11.4,1.8
		c57.9,13.9,116.8,16.6,176.1,14.3c5.1-0.2,10.1-4.2,15.2-6.5c-3-4.7-4.9-10.8-9.2-13.7c-15.8-10.7-31.7-21.7-48.8-29.9
		c-40.3-19.2-74-47.4-107.9-75.4c-12.3-10.1-22.2-23.2-33.2-34.9c6-1.5,10.1-0.7,14,0.8c43,16.2,87.9,20.9,133.4,21.2
		c6,0,12.1-4.7,18.2-7.3c-4.5-4.7-8.2-10.8-13.6-13.9c-37.1-21.3-74.7-41.8-112-63c-4.6-2.6-8.1-7.2-12.2-10.8
		c0.7-1.6,1.3-3.1,2-4.7c20,1.3,40,3.1,60,3.5c5.5,0.1,11.1-3.8,16.6-5.8c-3.1-5.7-4.8-13.1-9.5-16.7c-13.5-10.5-28.8-18.6-42-29.4
		c-13-10.6-24.3-23.4-39.1-37.9c13.7-1,22.6-1.7,35-2.6c-21.9-19.9-40.8-37.1-59.7-54.3c0.9-1.5,1.7-3,2.6-4.6
		c26-2.9,52.3,8.4,78.6,1.8c-16.5-16-34.1-28.8-50.3-43.2c-11.4-10.1-21.2-22.1-30.9-33.8c-2.8-3.3-3-8.8-4.4-13.3
		c5-1.3,9.9-3.2,15-3.6c7.8-0.6,15.6-0.2,23.5-0.2c0.6-1.7,1.2-3.4,1.9-5.1c-26.3-20.3-52.2-40.9-71.9-67.3c1-1.4,1.9-2.8,2.9-4.2
		c14.7,1.6,29.4,3.2,44.2,4.8c1.2-2,2.3-4,3.5-5.9c-24.7-26.6-49.3-53.1-74-79.7c0.9-1.2,1.8-2.4,2.8-3.7c5.8,0.8,11.6,2.1,17.5,2.3
		c3.9,0.2,7.9-1.1,11.8-1.8c-1.1-3.9-1.4-8.4-3.5-11.5c-4.9-7.2-11.4-13.4-16.2-20.7c-18.7-28.2-37.1-56.7-54-82.8
		c-12.6,20.5-26.4,44.1-41.4,66.8c-8.7,13.2-19.7,25-29.2,37.7c-1.9,2.6-3.6,7.7-2.3,9.8c1.3,2.2,6.4,3.2,9.7,3
		c6.7-0.5,13.3-2.2,21.5-3.7c-17.5,36.2-54,53.5-74.3,90.4c20.1-1.9,34.8-3.4,49.6-4.8c0.8,1.5,1.6,3,2.4,4.5
		c-20.1,25.8-45.4,46.6-71.1,69c9.6,2.7,18.5,2.6,27.3,2.7c13.9,0.2,17.6,5.2,8.8,15.2c-16.2,18.4-34.5,35-52.4,51.8
		c-9.7,9.1-20.5,17.1-30.8,25.5c0.4,1.9,0.8,3.8,1.3,5.7c26.3-2.1,52.5-4.1,78.8-6.2c0.8,2,1.6,4,2.4,6
		c-19.2,16.8-38.4,33.6-60.4,52.9c13,1.2,22.2,2,34.3,3.1c-4.3,5.1-6.2,8.3-8.9,10.5c-24.2,18.9-48.7,37.4-72.5,56.8
		c-4.2,3.4-5.4,10.6-8,16c5,2.1,10,6.2,14.9,6.1c17.1-0.3,34.2-2.3,51.3-3.2c3.7-0.2,7.5,1.1,11.3,1.7c-4,8-8.7,12.4-14.1,15.5
		c-36.4,20.5-73,40.4-109.2,61.1c-5.3,3.1-8.8,9.4-13.1,14.2c6.1,2.4,12.4,7.2,18.3,6.9c26.4-1.4,53-3,79.1-7.2
		c22.5-3.6,44.5-10.9,70.7-17.6c-14.4,15.1-25.1,29-38.2,39.8c-35.2,29.1-70.8,57.6-112.8,77.1c-15.7,7.3-30,17.8-44.3,27.7
		c-3.3,2.3-6.4,8.5-5.5,11.9c0.8,3.1,7.2,6.7,11.1,6.6c44.1-1.4,88.2-2.7,132.2-5.7c18.6-1.2,36.9-6.3,59.6-10.3
		c-5.8,7.9-8.1,12.3-11.5,15.5c-21.6,20.2-43.7,40-65.1,60.4c-3.4,3.2-4.6,8.8-6.8,13.4c4.2,1.9,8.3,5,12.7,5.4
		c8.2,0.7,16.6,0.5,24.8-0.7c38-5.1,76-10.7,115.8-16.4c0,30.4,0,63.2,0,95.7c25.1,0,48.1,0,72.1,0
		C413.5,920.1,413.5,887.6,413.5,853.9z"/>
	<path d="M413.5,853.9c0,33.7,0,66.2,0,99.9c-24.1,0-47,0-72.1,0c0-32.5,0-65.3,0-95.7c-39.8,5.7-77.8,11.2-115.8,16.4
		c-8.2,1.1-16.6,1.3-24.8,0.7c-4.3-0.4-8.5-3.5-12.7-5.4c2.2-4.5,3.4-10.1,6.8-13.4c21.5-20.4,43.5-40.2,65.1-60.4
		c3.4-3.2,5.7-7.6,11.5-15.5c-22.7,4.1-41.1,9.1-59.6,10.3c-44,2.9-88.1,4.3-132.2,5.7c-3.8,0.1-10.2-3.5-11.1-6.6
		c-0.9-3.3,2.2-9.6,5.5-11.9c14.4-9.9,28.6-20.4,44.3-27.7c42-19.5,77.6-48,112.8-77.1c13.2-10.9,23.9-24.7,38.2-39.8
		c-26.2,6.7-48.2,13.9-70.7,17.6c-26.1,4.2-52.6,5.7-79.1,7.2c-6,0.3-12.2-4.5-18.3-6.9c4.3-4.8,7.8-11.1,13.1-14.2
		c36.2-20.7,72.8-40.7,109.2-61.1c5.4-3.1,10.1-7.5,14.1-15.5c-3.8-0.6-7.6-1.9-11.3-1.7c-17.1,1-34.2,2.9-51.3,3.2
		c-4.9,0.1-9.9-3.9-14.9-6.1c2.6-5.4,3.8-12.6,8-16c23.8-19.4,48.4-37.8,72.5-56.8c2.7-2.1,4.6-5.4,8.9-10.5
		c-12.1-1.1-21.4-2-34.3-3.1c22-19.3,41.2-36.1,60.4-52.9c-0.8-2-1.6-4-2.4-6c-26.3,2.1-52.5,4.1-78.8,6.2c-0.4-1.9-0.8-3.8-1.3-5.7
		c10.3-8.5,21.1-16.4,30.8-25.5c17.9-16.8,36.2-33.5,52.4-51.8c8.9-10.1,5.1-15.1-8.8-15.2c-8.8-0.1-17.6,0-27.3-2.7
		c25.7-22.4,50.9-43.2,71.1-69c-0.8-1.5-1.6-3-2.4-4.5c-14.8,1.4-29.5,2.8-49.6,4.8c20.3-37,56.8-54.2,74.3-90.4
		c-8.2,1.5-14.8,3.2-21.5,3.7c-3.3,0.2-8.4-0.8-9.7-3c-1.3-2.2,0.4-7.2,2.3-9.8c9.5-12.8,20.4-24.5,29.2-37.7
		c15-22.7,28.8-46.3,41.4-66.8c17,26.1,35.3,54.6,54,82.8c4.8,7.3,11.3,13.5,16.2,20.7c2.2,3.2,2.4,7.6,3.5,11.5
		c-3.9,0.6-7.9,1.9-11.8,1.8c-5.8-0.2-11.7-1.5-17.5-2.3c-0.9,1.2-1.8,2.4-2.8,3.7c24.7,26.6,49.3,53.1,74,79.7
		c-1.2,2-2.3,4-3.5,5.9c-14.7-1.6-29.4-3.2-44.2-4.8c-1,1.4-1.9,2.8-2.9,4.2c19.7,26.4,45.6,47.1,71.9,67.3
		c-0.6,1.7-1.2,3.4-1.9,5.1c-7.8,0-15.7-0.5-23.5,0.2c-5.1,0.4-10,2.4-15,3.6c1.4,4.5,1.6,10,4.4,13.3c9.8,11.7,19.6,23.7,30.9,33.8
		c16.2,14.4,33.8,27.3,50.3,43.2c-26.4,6.7-52.7-4.7-78.6-1.8c-0.9,1.5-1.7,3-2.6,4.6c18.9,17.2,37.8,34.4,59.7,54.3
		c-12.5,0.9-21.3,1.6-35,2.6c14.7,14.5,26,27.2,39.1,37.9c13.2,10.8,28.6,18.9,42,29.4c4.7,3.6,6.4,11,9.5,16.7
		c-5.5,2-11.1,5.9-16.6,5.8c-20-0.5-40-2.3-60-3.5c-0.7,1.6-1.3,3.1-2,4.7c4,3.7,7.6,8.2,12.2,10.8c37.2,21.1,74.8,41.7,112,63
		c5.4,3.1,9.1,9.2,13.6,13.9c-6.1,2.5-12.1,7.3-18.2,7.3c-45.5-0.3-90.4-5-133.4-21.2c-3.9-1.5-8-2.3-14-0.8
		c11,11.7,20.9,24.8,33.2,34.9c33.9,28,67.6,56.2,107.9,75.4c17.1,8.2,33,19.2,48.8,29.9c4.2,2.8,6.2,9,9.2,13.7
		c-5.1,2.2-10,6.3-15.2,6.5c-59.2,2.3-118.1-0.4-176.1-14.3c-2.4-0.6-4.9-0.8-11.4-1.8c4.6,6.9,6.4,11.3,9.7,14.4
		c21.1,20,42.7,39.4,63.7,59.5c4.2,4.1,6.6,10,9.9,15.1c-5.2,2-10.7,6.2-15.6,5.5c-40.9-5.3-81.7-11.5-122.5-17.5
		C423.1,856.9,419,855.4,413.5,853.9z"/>
</g>
</svg>
