<?xml version="1.0" encoding="utf-8"?>
<!-- Generator: Adobe Illustrator 20.1.0, SVG Export Plug-In . SVG Version: 6.00 Build 0)  -->
<svg version="1.1" id="Layer_1" xmlns="http://www.w3.org/2000/svg" xmlns:xlink="http://www.w3.org/1999/xlink" x="0px" y="0px"
	 viewBox="0 0 24 24" style="enable-background:new 0 0 24 24;" xml:space="preserve">
<path d="M12,2C6.5,2,2,6.5,2,12s4.5,10,10,10s10-4.5,10-10S17.5,2,12,2z M15.8,17.7c0-1.1,0-2.1,0-3.1h-0.1c-1.1,0-2.1,0-3.2,0
	c-0.1,0-0.1,0-0.1,0c-0.1,0-0.4,0-0.5,0c-1.1,0-2.3,0-3.4,0H8.6c0,1.1,0,2,0,3.1c-1.5-1.8-3.1-3.7-4.6-5.5C5.5,10.3,7,8.4,8.6,6.6
	c0,1.1,0,2.1,0,3.1h0.1c1.1,0,2.3,0,3.4,0h0.1c0.2,0,0.4,0,0.5,0c1,0,2,0,3.1,0c0,0,0,0,0.1,0c0-1.1,0-2,0-3.1
	c1.5,1.8,3,3.7,4.4,5.5C18.7,13.9,17.2,15.7,15.8,17.7z"/>
</svg>
