<?xml version="1.0" encoding="utf-8"?>
<!-- Generator: Adobe Illustrator 20.1.0, SVG Export Plug-In . SVG Version: 6.00 Build 0)  -->
<svg version="1.1" id="Layer_1" xmlns="http://www.w3.org/2000/svg" xmlns:xlink="http://www.w3.org/1999/xlink" x="0px" y="0px"
	 viewBox="0 0 24 24" style="enable-background:new 0 0 24 24;" xml:space="preserve">
<path d="M12.1,2.1c-5.5,0-10,4.5-10,10s4.5,10,10,10s10-4.5,10-10S17.6,2.1,12.1,2.1z M12.1,19.1c-1.8-1.5-3.7-3.1-5.5-4.6
	c1.1,0,2.1,0,3.1,0v-0.1c0-1.1,0-2.3,0-3.4v-0.1c0-0.2,0-0.4,0-0.5c0-1,0-5.1,0-5.2c4.9-0.1,4.9-0.1,4.9-0.1s0,4.2,0,5.2
	c0,0.1,0,0.1,0,0.1c0,0.1,0,0.4,0,0.5c0,1.1,0,2.3,0,3.4v0.1c1.1,0,2,0,3.1,0C15.8,16,13.9,17.5,12.1,19.1z"/>
</svg>
