<?xml version="1.0" encoding="utf-8"?>
<!-- Generator: Adobe Illustrator 20.1.0, SVG Export Plug-In . SVG Version: 6.00 Build 0)  -->
<svg version="1.1" id="Layer_1" xmlns="http://www.w3.org/2000/svg" xmlns:xlink="http://www.w3.org/1999/xlink" x="0px" y="0px"
	 viewBox="0 0 744.1 1052.4" style="enable-background:new 0 0 744.1 1052.4;" xml:space="preserve">
<style type="text/css">
	.st0{fill:#FFFFFF;}
</style>
<title>Fire</title>
<g>
	<path class="st0" d="M613,787.2c9.1-15.7,10.2-33.8,8-53.8c-1.5-13,3.5-26.8,5.7-40.3c0.7-4,1.5-8,2.2-12c-4,0.2-8.4-0.9-12,0.5
		c-17.2,7.3-30.3,20.3-37.2,39.4c-4.9,13.7-8.6,28.1-12,42.3c-5.8,24.6-18.8,40.3-41.6,45.6c-53.5,12.2-102.2-1.8-147.3-34.1
		c-5.8-4.2-9.3-13.1-13.1-20.3c-4.9-9.1-7.8-19.9-13.7-28.1c-13-18.4-13.5-18.2-3.5-39.6c6.8-14.6,6-26.3-3.5-38.7
		c-21.7-28.5-35.8-60.4-39.4-98.2c-4.2-42.2-13.7-83-28.5-122.5c-2.9-7.7-5.7-15.5-6.8-23.5c-5.1-38.3-11.1-76.6-14.2-115.3
		c-4.9-59.7-7.8-119.4-11.9-179c-0.9-12.6-2-25.4-4.7-37.6c-2.9-13.7-10.9-22.6-24.3-25.2c-9.1-1.8-18.2-4.7-27.4-7.3
		C146.9,27.8,110.2,39.8,77,65.6C46.9,88.9,37.6,121,51.1,156.1c10.2,26.6,11.7,54,13.3,81.9c2.2,36.5,5.7,73,8.2,109.7
		c0.5,7.1,0,14.4,0,21.7c-2.2-1.5-3.1-2.9-3.3-4.6C65.1,320,49.8,277.3,48,231.6c-0.7-17-6.8-33.6-10.6-50.4
		c-1.5-6-3.5-11.7-5.3-17.5c-1.8,6.2-5.8,12.6-5.1,18.4c3.5,37.4,6.2,75,12.8,111.7c9.3,53.1,20.1,105.8,21,160.4
		c0.5,27.4,4.6,54.9,10,81.6c3.8,18.8,6.4,36,1.5,55.3c-5.5,21.4,0.4,26.8,19.7,24.6c0.5,0.5,1.3,1.1,1.6,1.6c1.5,3.1,2.7,6.4,4,9.5
		c40,92.5,94.7,171.2,170.3,231c10.9,8.8,20.8,19.9,29.7,31.4c6.2,8,13,11.1,22.1,11.7c10.8,0.5,21.7,2.4,32.3,4.9
		c27.2,6.6,53.8,13.1,82.1,8.4c37.8-6.4,71.9-22.4,104.6-43.6c15-9.7,31-15.5,48.2-8.9c10.9,4.2,21.4,10.4,32.1,15.5
		c29.4,14.2,58.2,17,85.4-5.7c4.9-4,8.4-10.2,12.6-15.3c-0.5-1.1-0.9-2-1.5-3.1c-23.2,2.6-40.9-9.1-57.3-24.8
		C643.8,814.7,628.9,801.6,613,787.2z"/>
	<path d="M613,787.2c15.9,14.4,30.8,27.6,45.4,41.2c16.4,15.7,34.3,27.6,57.3,24.8c0.5,1.1,0.9,2,1.5,3.1
		c-4.2,5.1-7.7,11.3-12.6,15.3c-27.2,22.6-56,19.9-85.4,5.7c-10.8-5.3-21-11.5-32.1-15.5c-17.2-6.6-33-0.7-48.2,8.9
		c-32.7,21.2-66.8,37.4-104.6,43.6c-28.3,4.7-55.1-1.8-82.1-8.4c-10.6-2.6-21.4-4.4-32.3-4.9c-9.3-0.5-15.9-3.6-22.1-11.7
		c-8.9-11.5-18.6-22.6-29.7-31.4c-75.4-59.9-130.3-138.5-170.3-231c-1.3-3.1-2.6-6.4-4-9.5c-0.4-0.7-1.1-1.1-1.6-1.6
		c-19.3,2.4-25.2-3.3-19.7-24.6c4.9-19.3,2.4-36.5-1.5-55.3c-5.5-26.6-9.7-54.4-10-81.6C60,399.5,49.3,347,39.9,293.9
		c-6.4-36.7-9.1-74.5-12.8-111.7c-0.5-5.8,3.3-12.2,5.1-18.4c1.8,5.8,3.8,11.5,5.3,17.5c3.8,16.8,9.9,33.4,10.6,50.4
		c2,45.6,17.2,88.3,21.4,133.2c0.2,1.6,1.1,3.1,3.3,4.6c0-7.3,0.4-14.6,0-21.7c-2.7-36.5-6-73-8.2-109.7
		c-1.6-27.9-3.1-55.3-13.3-81.9c-13.5-34.9-4.2-67.2,25.9-90.5c33.2-25.7,70.1-38,110.8-26.1c9.1,2.6,18.1,5.7,27.4,7.3
		c13.1,2.6,21.2,11.5,24.3,25.2c2.7,12.2,3.8,25,4.7,37.6c4,59.7,6.9,119.5,11.9,179c3.3,38.5,9.1,76.8,14.2,115.3
		c1.1,8,3.8,16.1,6.8,23.5c14.8,39.2,24.5,80.1,28.5,122.5c3.6,37.8,17.7,69.7,39.4,98.2c9.5,12.4,10.2,23.9,3.5,38.7
		c-9.9,21.4-9.3,21.2,3.5,39.6c5.8,8.2,8.8,19,13.7,28.1c3.8,7.3,7.3,16.1,13.1,20.3c45.1,32.1,93.8,46.4,147.3,34.1
		c22.8-5.3,35.8-21,41.6-45.6c3.5-14.2,6.9-28.7,12-42.3c6.9-19.2,20.1-32.1,37.2-39.4c3.5-1.5,8-0.5,12-0.5c-0.7,4-1.5,8-2.2,12
		c-2.2,13.5-7.1,27.4-5.7,40.3C623.2,753.4,621.9,771.6,613,787.2z"/>
</g>
</svg>
